<mxfile host="app.diagrams.net" agent="Mozilla/5.0 (Windows NT 10.0; Win64; x64) AppleWebKit/537.36 (KHTML, like Gecko) Chrome/131.0.0.0 Safari/537.36" version="25.0.3">
  <diagram name="Side-1" id="V7Wl6b6kd6wVtdb0zpTJ">
    <mxGraphModel grid="0" page="1" gridSize="10" guides="1" tooltips="1" connect="1" arrows="1" fold="1" pageScale="1" pageWidth="827" pageHeight="1169" math="0" shadow="0">
      <root>
        <mxCell id="0" />
        <mxCell id="1" parent="0" />
        <mxCell id="AElm8VdayCvA5KKZwvWs-1" value="Sequence diagam - use case 1" style="shape=umlFrame;whiteSpace=wrap;html=1;pointerEvents=0;recursiveResize=0;container=1;collapsible=0;width=210;height=20;" vertex="1" parent="1">
          <mxGeometry x="14" y="-1150" width="766" height="1028" as="geometry" />
        </mxCell>
        <mxCell id="7M_pjzm5ePy-hNQwa7P8-11" value="&lt;div&gt;Rspberry-pi&lt;/div&gt;" style="shape=umlLifeline;perimeter=lifelinePerimeter;whiteSpace=wrap;html=1;container=1;dropTarget=0;collapsible=0;recursiveResize=0;outlineConnect=0;portConstraint=eastwest;newEdgeStyle={&quot;curved&quot;:0,&quot;rounded&quot;:0};" vertex="1" parent="AElm8VdayCvA5KKZwvWs-1">
          <mxGeometry x="376" y="70" width="100" height="956" as="geometry" />
        </mxCell>
        <mxCell id="AElm8VdayCvA5KKZwvWs-2" value="ESP" style="shape=umlLifeline;perimeter=lifelinePerimeter;whiteSpace=wrap;html=1;container=1;dropTarget=0;collapsible=0;recursiveResize=0;outlineConnect=0;portConstraint=eastwest;newEdgeStyle={&quot;curved&quot;:0,&quot;rounded&quot;:0};" vertex="1" parent="AElm8VdayCvA5KKZwvWs-1">
          <mxGeometry x="216" y="67" width="100" height="956" as="geometry" />
        </mxCell>
        <mxCell id="HAoSCuP-29lkaarswrlq-34" value="" style="html=1;points=[[0,0,0,0,5],[0,1,0,0,-5],[1,0,0,0,5],[1,1,0,0,-5]];perimeter=orthogonalPerimeter;outlineConnect=0;targetShapes=umlLifeline;portConstraint=eastwest;newEdgeStyle={&quot;curved&quot;:0,&quot;rounded&quot;:0};" vertex="1" parent="AElm8VdayCvA5KKZwvWs-2">
          <mxGeometry x="45" y="128" width="10" height="152" as="geometry" />
        </mxCell>
        <mxCell id="HAoSCuP-29lkaarswrlq-42" value="" style="html=1;points=[[0,0,0,0,5],[0,1,0,0,-5],[1,0,0,0,5],[1,1,0,0,-5]];perimeter=orthogonalPerimeter;outlineConnect=0;targetShapes=umlLifeline;portConstraint=eastwest;newEdgeStyle={&quot;curved&quot;:0,&quot;rounded&quot;:0};" vertex="1" parent="AElm8VdayCvA5KKZwvWs-2">
          <mxGeometry x="50" y="210" width="10" height="40" as="geometry" />
        </mxCell>
        <mxCell id="HAoSCuP-29lkaarswrlq-43" value="beregn solens retning" style="html=1;align=left;spacingLeft=2;endArrow=block;rounded=0;edgeStyle=orthogonalEdgeStyle;curved=0;rounded=0;" edge="1" parent="AElm8VdayCvA5KKZwvWs-2" target="HAoSCuP-29lkaarswrlq-42">
          <mxGeometry relative="1" as="geometry">
            <mxPoint x="55" y="190" as="sourcePoint" />
            <Array as="points">
              <mxPoint x="85" y="220" />
            </Array>
          </mxGeometry>
        </mxCell>
        <mxCell id="HAoSCuP-29lkaarswrlq-44" value="" style="html=1;points=[[0,0,0,0,5],[0,1,0,0,-5],[1,0,0,0,5],[1,1,0,0,-5]];perimeter=orthogonalPerimeter;outlineConnect=0;targetShapes=umlLifeline;portConstraint=eastwest;newEdgeStyle={&quot;curved&quot;:0,&quot;rounded&quot;:0};" vertex="1" parent="AElm8VdayCvA5KKZwvWs-2">
          <mxGeometry x="205" y="261" width="10" height="395" as="geometry" />
        </mxCell>
        <mxCell id="HAoSCuP-29lkaarswrlq-48" value="parser data og&amp;nbsp;&lt;div&gt;opdaterer data&lt;/div&gt;" style="html=1;align=left;spacingLeft=2;endArrow=block;rounded=0;edgeStyle=orthogonalEdgeStyle;curved=0;rounded=0;" edge="1" parent="AElm8VdayCvA5KKZwvWs-2" target="HAoSCuP-29lkaarswrlq-47">
          <mxGeometry x="-0.0105" relative="1" as="geometry">
            <mxPoint x="215" y="284" as="sourcePoint" />
            <Array as="points">
              <mxPoint x="245" y="314" />
            </Array>
            <mxPoint as="offset" />
          </mxGeometry>
        </mxCell>
        <mxCell id="HAoSCuP-29lkaarswrlq-45" value="sender lysdata (csv)" style="html=1;verticalAlign=bottom;endArrow=block;curved=0;rounded=0;entryX=0;entryY=0;entryDx=0;entryDy=5;" edge="1" parent="AElm8VdayCvA5KKZwvWs-2" target="HAoSCuP-29lkaarswrlq-44">
          <mxGeometry x="-0.0022" relative="1" as="geometry">
            <mxPoint x="55" y="266.0000000000002" as="sourcePoint" />
            <mxPoint as="offset" />
          </mxGeometry>
        </mxCell>
        <mxCell id="HAoSCuP-29lkaarswrlq-47" value="" style="html=1;points=[[0,0,0,0,5],[0,1,0,0,-5],[1,0,0,0,5],[1,1,0,0,-5]];perimeter=orthogonalPerimeter;outlineConnect=0;targetShapes=umlLifeline;portConstraint=eastwest;newEdgeStyle={&quot;curved&quot;:0,&quot;rounded&quot;:0};" vertex="1" parent="AElm8VdayCvA5KKZwvWs-2">
          <mxGeometry x="210" y="304" width="10" height="40" as="geometry" />
        </mxCell>
        <mxCell id="7M_pjzm5ePy-hNQwa7P8-6" value="Aktuator" style="shape=umlLifeline;perimeter=lifelinePerimeter;whiteSpace=wrap;html=1;container=1;dropTarget=0;collapsible=0;recursiveResize=0;outlineConnect=0;portConstraint=eastwest;newEdgeStyle={&quot;curved&quot;:0,&quot;rounded&quot;:0};" vertex="1" parent="AElm8VdayCvA5KKZwvWs-1">
          <mxGeometry x="536" y="70" width="100" height="958" as="geometry" />
        </mxCell>
        <mxCell id="7M_pjzm5ePy-hNQwa7P8-4" value="Lys sensor" style="shape=umlLifeline;perimeter=lifelinePerimeter;whiteSpace=wrap;html=1;container=1;dropTarget=0;collapsible=0;recursiveResize=0;outlineConnect=0;portConstraint=eastwest;newEdgeStyle={&quot;curved&quot;:0,&quot;rounded&quot;:0};" vertex="1" parent="AElm8VdayCvA5KKZwvWs-1">
          <mxGeometry x="56" y="70" width="100" height="952" as="geometry" />
        </mxCell>
        <mxCell id="HAoSCuP-29lkaarswrlq-3" value="" style="html=1;points=[[0,0,0,0,5],[0,1,0,0,-5],[1,0,0,0,5],[1,1,0,0,-5]];perimeter=orthogonalPerimeter;outlineConnect=0;targetShapes=umlLifeline;portConstraint=eastwest;newEdgeStyle={&quot;curved&quot;:0,&quot;rounded&quot;:0};" vertex="1" parent="7M_pjzm5ePy-hNQwa7P8-4">
          <mxGeometry x="45" y="130" width="10" height="40" as="geometry" />
        </mxCell>
        <mxCell id="HAoSCuP-29lkaarswrlq-38" value="læser analog værdi" style="html=1;verticalAlign=bottom;endArrow=block;curved=0;rounded=0;" edge="1" parent="AElm8VdayCvA5KKZwvWs-1">
          <mxGeometry relative="1" as="geometry">
            <mxPoint x="261" y="203" as="sourcePoint" />
            <mxPoint x="111" y="203" as="targetPoint" />
          </mxGeometry>
        </mxCell>
        <mxCell id="HAoSCuP-29lkaarswrlq-39" value="return analog værdi" style="html=1;verticalAlign=bottom;endArrow=open;dashed=1;endSize=8;curved=0;rounded=0;" edge="1" parent="AElm8VdayCvA5KKZwvWs-1">
          <mxGeometry relative="1" as="geometry">
            <mxPoint x="261" y="232" as="targetPoint" />
            <mxPoint x="111" y="232" as="sourcePoint" />
          </mxGeometry>
        </mxCell>
        <mxCell id="HAoSCuP-29lkaarswrlq-65" value="loop" style="shape=umlFrame;whiteSpace=wrap;html=1;pointerEvents=0;width=126;height=15;" vertex="1" parent="AElm8VdayCvA5KKZwvWs-1">
          <mxGeometry x="10" y="140" width="730" height="871" as="geometry" />
        </mxCell>
        <mxCell id="sHNx1kJN2sxZ_haehfbj-2" value="" style="html=1;points=[[0,0,0,0,5],[0,1,0,0,-5],[1,0,0,0,5],[1,1,0,0,-5]];perimeter=orthogonalPerimeter;outlineConnect=0;targetShapes=umlLifeline;portConstraint=eastwest;newEdgeStyle={&quot;curved&quot;:0,&quot;rounded&quot;:0};" vertex="1" parent="AElm8VdayCvA5KKZwvWs-1">
          <mxGeometry x="426" y="450" width="10" height="40" as="geometry" />
        </mxCell>
        <mxCell id="sHNx1kJN2sxZ_haehfbj-3" value="bestemmer retningen&amp;nbsp;&lt;div&gt;med maksimal lysintensitet&lt;/div&gt;" style="html=1;align=left;spacingLeft=2;endArrow=block;rounded=0;edgeStyle=orthogonalEdgeStyle;curved=0;rounded=0;" edge="1" parent="AElm8VdayCvA5KKZwvWs-1" target="sHNx1kJN2sxZ_haehfbj-2">
          <mxGeometry relative="1" as="geometry">
            <mxPoint x="431" y="430" as="sourcePoint" />
            <Array as="points">
              <mxPoint x="461" y="460" />
            </Array>
          </mxGeometry>
        </mxCell>
        <mxCell id="sHNx1kJN2sxZ_haehfbj-4" value="" style="html=1;points=[[0,0,0,0,5],[0,1,0,0,-5],[1,0,0,0,5],[1,1,0,0,-5]];perimeter=orthogonalPerimeter;outlineConnect=0;targetShapes=umlLifeline;portConstraint=eastwest;newEdgeStyle={&quot;curved&quot;:0,&quot;rounded&quot;:0};" vertex="1" parent="AElm8VdayCvA5KKZwvWs-1">
          <mxGeometry x="426" y="525" width="10" height="40" as="geometry" />
        </mxCell>
        <mxCell id="sHNx1kJN2sxZ_haehfbj-5" value="beregner&amp;nbsp; forskel:&amp;nbsp;&lt;div&gt;- ønsket lysintensitet&lt;/div&gt;&lt;div&gt;- aktuel lysintensitet&lt;/div&gt;" style="html=1;align=left;spacingLeft=2;endArrow=block;rounded=0;edgeStyle=orthogonalEdgeStyle;curved=0;rounded=0;" edge="1" parent="AElm8VdayCvA5KKZwvWs-1" target="sHNx1kJN2sxZ_haehfbj-4">
          <mxGeometry x="0.2941" y="15" relative="1" as="geometry">
            <mxPoint x="431" y="505" as="sourcePoint" />
            <Array as="points">
              <mxPoint x="461" y="535" />
            </Array>
            <mxPoint as="offset" />
          </mxGeometry>
        </mxCell>
        <mxCell id="sHNx1kJN2sxZ_haehfbj-15" value="" style="html=1;points=[[0,0,0,0,5],[0,1,0,0,-5],[1,0,0,0,5],[1,1,0,0,-5]];perimeter=orthogonalPerimeter;outlineConnect=0;targetShapes=umlLifeline;portConstraint=eastwest;newEdgeStyle={&quot;curved&quot;:0,&quot;rounded&quot;:0};" vertex="1" parent="AElm8VdayCvA5KKZwvWs-1">
          <mxGeometry x="420" y="873" width="10" height="110" as="geometry" />
        </mxCell>
        <mxCell id="sHNx1kJN2sxZ_haehfbj-6" value="" style="html=1;points=[[0,0,0,0,5],[0,1,0,0,-5],[1,0,0,0,5],[1,1,0,0,-5]];perimeter=orthogonalPerimeter;outlineConnect=0;targetShapes=umlLifeline;portConstraint=eastwest;newEdgeStyle={&quot;curved&quot;:0,&quot;rounded&quot;:0};" vertex="1" parent="AElm8VdayCvA5KKZwvWs-1">
          <mxGeometry x="579" y="702" width="10" height="181" as="geometry" />
        </mxCell>
        <mxCell id="sHNx1kJN2sxZ_haehfbj-7" value="giv signal&amp;nbsp;" style="html=1;verticalAlign=bottom;endArrow=block;curved=0;rounded=0;" edge="1" parent="AElm8VdayCvA5KKZwvWs-1" target="sHNx1kJN2sxZ_haehfbj-6">
          <mxGeometry x="0.0006" relative="1" as="geometry">
            <mxPoint x="429.9999999999998" y="707.0000000000002" as="sourcePoint" />
            <mxPoint as="offset" />
          </mxGeometry>
        </mxCell>
        <mxCell id="sHNx1kJN2sxZ_haehfbj-10" value="" style="html=1;points=[[0,0,0,0,5],[0,1,0,0,-5],[1,0,0,0,5],[1,1,0,0,-5]];perimeter=orthogonalPerimeter;outlineConnect=0;targetShapes=umlLifeline;portConstraint=eastwest;newEdgeStyle={&quot;curved&quot;:0,&quot;rounded&quot;:0};" vertex="1" parent="AElm8VdayCvA5KKZwvWs-1">
          <mxGeometry x="584" y="743" width="10" height="40" as="geometry" />
        </mxCell>
        <mxCell id="sHNx1kJN2sxZ_haehfbj-11" value="horisontal bevægelse" style="html=1;align=left;spacingLeft=2;endArrow=block;rounded=0;edgeStyle=orthogonalEdgeStyle;curved=0;rounded=0;" edge="1" parent="AElm8VdayCvA5KKZwvWs-1" target="sHNx1kJN2sxZ_haehfbj-10">
          <mxGeometry relative="1" as="geometry">
            <mxPoint x="589" y="723" as="sourcePoint" />
            <Array as="points">
              <mxPoint x="619" y="753" />
            </Array>
          </mxGeometry>
        </mxCell>
        <mxCell id="sHNx1kJN2sxZ_haehfbj-12" value="" style="html=1;points=[[0,0,0,0,5],[0,1,0,0,-5],[1,0,0,0,5],[1,1,0,0,-5]];perimeter=orthogonalPerimeter;outlineConnect=0;targetShapes=umlLifeline;portConstraint=eastwest;newEdgeStyle={&quot;curved&quot;:0,&quot;rounded&quot;:0};" vertex="1" parent="AElm8VdayCvA5KKZwvWs-1">
          <mxGeometry x="584" y="823" width="10" height="40" as="geometry" />
        </mxCell>
        <mxCell id="sHNx1kJN2sxZ_haehfbj-13" value="vertikal bevægelse" style="html=1;align=left;spacingLeft=2;endArrow=block;rounded=0;edgeStyle=orthogonalEdgeStyle;curved=0;rounded=0;" edge="1" parent="AElm8VdayCvA5KKZwvWs-1" target="sHNx1kJN2sxZ_haehfbj-12">
          <mxGeometry x="0.0053" relative="1" as="geometry">
            <mxPoint x="589" y="803" as="sourcePoint" />
            <Array as="points">
              <mxPoint x="619" y="833" />
            </Array>
            <mxPoint as="offset" />
          </mxGeometry>
        </mxCell>
        <mxCell id="sHNx1kJN2sxZ_haehfbj-21" value="feedback" style="html=1;verticalAlign=bottom;endArrow=open;dashed=1;endSize=8;curved=0;rounded=0;" edge="1" parent="AElm8VdayCvA5KKZwvWs-1" source="sHNx1kJN2sxZ_haehfbj-6" target="sHNx1kJN2sxZ_haehfbj-15">
          <mxGeometry relative="1" as="geometry">
            <mxPoint x="445" y="858" as="targetPoint" />
          </mxGeometry>
        </mxCell>
        <mxCell id="sHNx1kJN2sxZ_haehfbj-22" value="" style="html=1;points=[[0,0,0,0,5],[0,1,0,0,-5],[1,0,0,0,5],[1,1,0,0,-5]];perimeter=orthogonalPerimeter;outlineConnect=0;targetShapes=umlLifeline;portConstraint=eastwest;newEdgeStyle={&quot;curved&quot;:0,&quot;rounded&quot;:0};" vertex="1" parent="AElm8VdayCvA5KKZwvWs-1">
          <mxGeometry x="425" y="913" width="10" height="40" as="geometry" />
        </mxCell>
        <mxCell id="sHNx1kJN2sxZ_haehfbj-23" value="valider position&amp;nbsp;" style="html=1;align=left;spacingLeft=2;endArrow=block;rounded=0;edgeStyle=orthogonalEdgeStyle;curved=0;rounded=0;" edge="1" parent="AElm8VdayCvA5KKZwvWs-1" target="sHNx1kJN2sxZ_haehfbj-22">
          <mxGeometry relative="1" as="geometry">
            <mxPoint x="430" y="893" as="sourcePoint" />
            <Array as="points">
              <mxPoint x="460" y="923" />
            </Array>
          </mxGeometry>
        </mxCell>
        <mxCell id="sHNx1kJN2sxZ_haehfbj-24" value="standby" style="html=1;verticalAlign=bottom;endArrow=block;curved=0;rounded=0;" edge="1" parent="AElm8VdayCvA5KKZwvWs-1">
          <mxGeometry width="80" relative="1" as="geometry">
            <mxPoint x="420" y="973" as="sourcePoint" />
            <mxPoint x="109.99999999999966" y="973" as="targetPoint" />
          </mxGeometry>
        </mxCell>
        <mxCell id="sHNx1kJN2sxZ_haehfbj-25" value="" style="html=1;points=[[0,0,0,0,5],[0,1,0,0,-5],[1,0,0,0,5],[1,1,0,0,-5]];perimeter=orthogonalPerimeter;outlineConnect=0;targetShapes=umlLifeline;portConstraint=eastwest;newEdgeStyle={&quot;curved&quot;:0,&quot;rounded&quot;:0};" vertex="1" parent="AElm8VdayCvA5KKZwvWs-1">
          <mxGeometry x="100" y="963" width="10" height="20" as="geometry" />
        </mxCell>
        <mxCell id="hfCYlhl-77J4eeFs6cle-9" value="standby" style="html=1;verticalAlign=bottom;endArrow=block;curved=0;rounded=0;" edge="1" parent="AElm8VdayCvA5KKZwvWs-1">
          <mxGeometry width="80" relative="1" as="geometry">
            <mxPoint x="420" y="651" as="sourcePoint" />
            <mxPoint x="109.99999999999966" y="651" as="targetPoint" />
          </mxGeometry>
        </mxCell>
        <mxCell id="hfCYlhl-77J4eeFs6cle-10" value="" style="html=1;points=[[0,0,0,0,5],[0,1,0,0,-5],[1,0,0,0,5],[1,1,0,0,-5]];perimeter=orthogonalPerimeter;outlineConnect=0;targetShapes=umlLifeline;portConstraint=eastwest;newEdgeStyle={&quot;curved&quot;:0,&quot;rounded&quot;:0};" vertex="1" parent="AElm8VdayCvA5KKZwvWs-1">
          <mxGeometry x="100" y="641" width="10" height="20" as="geometry" />
        </mxCell>
        <mxCell id="hfCYlhl-77J4eeFs6cle-11" value="EXT 1" style="shape=umlFrame;whiteSpace=wrap;html=1;pointerEvents=0;recursiveResize=0;container=1;collapsible=0;width=160;" vertex="1" parent="AElm8VdayCvA5KKZwvWs-1">
          <mxGeometry x="10" y="572" width="730" height="104" as="geometry" />
        </mxCell>
        <mxCell id="hfCYlhl-77J4eeFs6cle-14" value="" style="html=1;points=[[0,0,0,0,5],[0,1,0,0,-5],[1,0,0,0,5],[1,1,0,0,-5]];perimeter=orthogonalPerimeter;outlineConnect=0;targetShapes=umlLifeline;portConstraint=eastwest;newEdgeStyle={&quot;curved&quot;:0,&quot;rounded&quot;:0};" vertex="1" parent="hfCYlhl-77J4eeFs6cle-11">
          <mxGeometry x="415" y="27" width="10" height="40" as="geometry" />
        </mxCell>
        <mxCell id="hfCYlhl-77J4eeFs6cle-15" value="&lt;span id=&quot;docs-internal-guid-61366f04-7fff-806d-42f2-0f29a42ae7e7&quot;&gt;&lt;span style=&quot;font-family: Average, serif; background-color: transparent; font-variant-numeric: normal; font-variant-east-asian: normal; font-variant-alternates: normal; font-variant-position: normal; font-variant-emoji: normal; vertical-align: baseline; white-space: pre-wrap;&quot;&gt;&lt;font style=&quot;font-size: 10px;&quot;&gt;Motoren er allerede indenfor en &lt;/font&gt;&lt;/span&gt;&lt;/span&gt;&lt;div&gt;&lt;span&gt;&lt;span style=&quot;font-family: Average, serif; background-color: transparent; font-variant-numeric: normal; font-variant-east-asian: normal; font-variant-alternates: normal; font-variant-position: normal; font-variant-emoji: normal; vertical-align: baseline; white-space: pre-wrap;&quot;&gt;&lt;font style=&quot;font-size: 10px;&quot;&gt;acceptabel interval&lt;/font&gt;&lt;/span&gt;&lt;/span&gt;&lt;/div&gt;" style="html=1;align=left;spacingLeft=2;endArrow=block;rounded=0;edgeStyle=orthogonalEdgeStyle;curved=0;rounded=0;" edge="1" parent="hfCYlhl-77J4eeFs6cle-11" target="hfCYlhl-77J4eeFs6cle-14">
          <mxGeometry x="0.4118" y="19" relative="1" as="geometry">
            <mxPoint x="420" y="7" as="sourcePoint" />
            <Array as="points">
              <mxPoint x="450" y="37" />
            </Array>
            <mxPoint x="16" y="-9" as="offset" />
          </mxGeometry>
        </mxCell>
      </root>
    </mxGraphModel>
  </diagram>
</mxfile>
